<?xml version="1.0" encoding="UTF-8" standalone="no"?>
<!-- Created with Inkscape (http://www.inkscape.org/) -->

<svg
   version="1.1"
   id="svg9"
   xml:space="preserve"
   width="195.52"
   height="90.720001"
   viewBox="0 0 195.52 90.720001"
   sodipodi:docname="exam_cuboid_gender_2_3.svg"
   inkscape:version="1.1.2 (b8e25be833, 2022-02-05)"
   xmlns:inkscape="http://www.inkscape.org/namespaces/inkscape"
   xmlns:sodipodi="http://sodipodi.sourceforge.net/DTD/sodipodi-0.dtd"
   xmlns="http://www.w3.org/2000/svg"
   xmlns:svg="http://www.w3.org/2000/svg"><defs
     id="defs13"><clipPath
       clipPathUnits="userSpaceOnUse"
       id="clipPath31"><path
         d="M 2.185e-6,0 H 146.64 V 68.04 H 2.185e-6 Z"
         clip-rule="evenodd"
         id="path29" /></clipPath><clipPath
       clipPathUnits="userSpaceOnUse"
       id="clipPath43"><path
         d="M 2.185e-6,0 H 146.64 V 68.04 H 2.185e-6 Z"
         clip-rule="evenodd"
         id="path41" /></clipPath><clipPath
       clipPathUnits="userSpaceOnUse"
       id="clipPath57"><path
         d="M 2.185e-6,0 H 146.64 V 68.04 H 2.185e-6 Z"
         clip-rule="evenodd"
         id="path55" /></clipPath><clipPath
       clipPathUnits="userSpaceOnUse"
       id="clipPath69"><path
         d="M -2.2888e-5,68.04 H 146.64 V -7.629e-6 L -1.5259e-5,0"
         clip-rule="evenodd"
         id="path67" /></clipPath><clipPath
       clipPathUnits="userSpaceOnUse"
       id="clipPath79"><path
         d="M 2.185e-6,0 H 146.64 V 68.04 H 2.185e-6 Z"
         clip-rule="evenodd"
         id="path77" /></clipPath><clipPath
       clipPathUnits="userSpaceOnUse"
       id="clipPath91"><path
         d="M 3.815e-6,68.04 H 146.64 V 3.8147e-5 L 0,1.5259e-5"
         clip-rule="evenodd"
         id="path89" /></clipPath><clipPath
       clipPathUnits="userSpaceOnUse"
       id="clipPath101"><path
         d="M 2.185e-6,0 H 146.64 V 68.04 H 2.185e-6 Z"
         clip-rule="evenodd"
         id="path99" /></clipPath></defs><sodipodi:namedview
     id="namedview11"
     pagecolor="#ffffff"
     bordercolor="#666666"
     borderopacity="1.0"
     inkscape:pageshadow="2"
     inkscape:pageopacity="0.0"
     inkscape:pagecheckerboard="0"
     showgrid="false"
     inkscape:zoom="3.1911375"
     inkscape:cx="58.756478"
     inkscape:cy="71.917929"
     inkscape:window-width="1440"
     inkscape:window-height="830"
     inkscape:window-x="-6"
     inkscape:window-y="-6"
     inkscape:window-maximized="1"
     inkscape:current-layer="g15" /><g
     id="g15"
     inkscape:groupmode="layer"
     inkscape:label="exam_cuboid_gender_2_3"
     transform="matrix(1.3333333,0,0,-1.3333333,0,90.72)"><path
       d="m 52.173,32.44 c 0,2.348 1.904,4.252 4.252,4.252 2.348,0 4.252,-1.904 4.252,-4.252 0,-2.348 -1.904,-4.252 -4.252,-4.252 -2.348,0 -4.252,1.904 -4.252,4.252 z"
       style="fill:#000000;fill-opacity:1;fill-rule:evenodd;stroke:none"
       id="path17" /><path
       d="m 52.173,32.44 c 0,2.348 1.904,4.252 4.252,4.252 2.348,0 4.252,-1.904 4.252,-4.252 0,-2.348 -1.904,-4.252 -4.252,-4.252 -2.348,0 -4.252,1.904 -4.252,4.252 z"
       style="fill:none;stroke:#000000;stroke-width:0.24;stroke-linecap:round;stroke-linejoin:round;stroke-miterlimit:10;stroke-dasharray:none;stroke-opacity:1"
       id="path19" /><path
       d="m 85.339,32.44 c 0,2.348 1.903,4.252 4.252,4.252 2.348,0 4.252,-1.904 4.252,-4.252 0,-2.348 -1.904,-4.252 -4.252,-4.252 -2.349,0 -4.252,1.904 -4.252,4.252 z"
       style="fill:#000000;fill-opacity:1;fill-rule:evenodd;stroke:none"
       id="path21" /><path
       d="m 85.339,32.44 c 0,2.348 1.903,4.252 4.252,4.252 2.348,0 4.252,-1.904 4.252,-4.252 0,-2.348 -1.904,-4.252 -4.252,-4.252 -2.349,0 -4.252,1.904 -4.252,4.252 z"
       style="fill:none;stroke:#000000;stroke-width:0.24;stroke-linecap:round;stroke-linejoin:round;stroke-miterlimit:10;stroke-dasharray:none;stroke-opacity:1"
       id="path23" /><g
       id="g25"><g
         id="g27"
         clip-path="url(#clipPath31)"><text
           transform="matrix(1,0,0,-1,48.696,41.328)"
           style="font-variant:normal;font-weight:normal;font-size:8.04px;font-family:'Times New Roman';-inkscape-font-specification:TimesNewRomanPSMT;writing-mode:lr-tb;fill:#000000;fill-opacity:1;fill-rule:nonzero;stroke:none"
           id="text35"><tspan
             x="0 6.2551198 9.7203598 11.99568"
             y="0"
             sodipodi:role="line"
             id="tspan33">male</tspan></text></g></g><g
       id="g37"><g
         id="g39"
         clip-path="url(#clipPath43)"><text
           transform="matrix(1,0,0,-1,78.768,41.328)"
           style="font-variant:normal;font-weight:normal;font-size:8.04px;font-family:'Times New Roman';-inkscape-font-specification:TimesNewRomanPSMT;writing-mode:lr-tb;fill:#000000;fill-opacity:1;fill-rule:nonzero;stroke:none"
           id="text47"><tspan
             x="0 2.63712 6.2309999 12.48612 15.95136 18.226681"
             y="0"
             sodipodi:role="line"
             id="tspan45">female</tspan></text></g></g><path
       d="M 89.591,32.44 H 56.425 73.008"
       style="fill:none;stroke:#000000;stroke-width:0.75;stroke-linecap:round;stroke-linejoin:round;stroke-miterlimit:10;stroke-dasharray:none;stroke-opacity:1"
       id="path49" /><g
       id="g51"><g
         id="g53"
         clip-path="url(#clipPath57)"><text
           transform="matrix(1,0,0,-1,68.568,25.32)"
           style="font-variant:normal;font-weight:normal;font-size:6px;font-family:'Times New Roman';-inkscape-font-specification:TimesNewRomanPSMT;writing-mode:lr-tb;fill:#000000;fill-opacity:1;fill-rule:nonzero;stroke:none"
           id="text61"><tspan
             x="0 3 6"
             y="0"
             sodipodi:role="line"
             id="tspan59">107</tspan></text></g></g><g
       id="g63"><g
         id="g65"
         clip-path="url(#clipPath69)"><path
           d="m 89.591,28.188 7.299,-1.187 5.56,-0.689 3.81,-0.19 2.08,0.308 0.33,0.806 -1.4,1.305 -3.15,1.804 -4.891,2.302 -6.631,2.8"
           style="fill:none;stroke:#000000;stroke-width:0.75;stroke-linecap:round;stroke-linejoin:round;stroke-miterlimit:10;stroke-dasharray:none;stroke-opacity:1"
           id="path71" /></g></g><g
       id="g73"><g
         id="g75"
         clip-path="url(#clipPath79)"><text
           transform="matrix(1,0,0,-1,109.78,31.56)"
           style="font-variant:normal;font-weight:normal;font-size:6px;font-family:'Times New Roman';-inkscape-font-specification:TimesNewRomanPSMT;writing-mode:lr-tb;fill:#000000;fill-opacity:1;fill-rule:nonzero;stroke:none"
           id="text83"><tspan
             x="0 3"
             y="0"
             sodipodi:role="line"
             id="tspan81">60</tspan></text></g></g><g
       id="g85"><g
         id="g87"
         clip-path="url(#clipPath91)"><path
           d="M 56.425,36.692 48.646,34.272 42.982,32.284 39.433,30.729 38,29.605 l 0.682,-0.691 2.797,-0.259 4.912,0.173 7.027,0.605"
           style="fill:none;stroke:#000000;stroke-width:0.75;stroke-linecap:round;stroke-linejoin:round;stroke-miterlimit:10;stroke-dasharray:none;stroke-opacity:1"
           id="path93" /></g></g><g
       id="g95"><g
         id="g97"
         clip-path="url(#clipPath101)"><text
           transform="matrix(1,0,0,-1,33.696,25.32)"
           style="font-variant:normal;font-weight:normal;font-size:6px;font-family:'Times New Roman';-inkscape-font-specification:TimesNewRomanPSMT;writing-mode:lr-tb;fill:#000000;fill-opacity:1;fill-rule:nonzero;stroke:none"
           id="text105"><tspan
             x="0"
             y="0"
             id="tspan103">6</tspan></text></g></g><rect
       style="fill:#ffffff;stroke-width:1.27307"
       id="rect258"
       width="144.54094"
       height="27.263006"
       x="0.94010371"
       y="1.5276678"
       transform="scale(1,-1)" /></g></svg>
